<svg id="Layer_1" data-name="Layer 1" xmlns="http://www.w3.org/2000/svg" viewBox="0 0 83 28"><defs><style>.cls-1{fill:#ff6131;}</style></defs><path class="cls-1" d="M11.67,21.68H9.08V11.89a3.24,3.24,0,0,0-6.48,0v9.78H0V11.89a5.84,5.84,0,0,1,11.67,0v9.78Z"/><rect class="cls-1" y="6.12" width="2.59" height="15.56"/><path class="cls-1" d="M20.75,21.68H18.15V11.89a3.24,3.24,0,0,0-6.48,0v9.78H9.08V11.89a5.84,5.84,0,0,1,11.67,0v9.78Z"/><path class="cls-1" d="M29.82,22a7.72,7.72,0,0,1-7.46-7.94,7.72,7.72,0,0,1,7.46-7.94,7.72,7.72,0,0,1,7.46,7.94A7.72,7.72,0,0,1,29.82,22Zm0-13.29A5.13,5.13,0,0,0,25,14.06a5.13,5.13,0,0,0,4.86,5.35,5.13,5.13,0,0,0,4.86-5.35A5.13,5.13,0,0,0,29.82,8.71Z"/><path class="cls-1" d="M46.19,22a7.72,7.72,0,0,1-7.46-7.94,7.72,7.72,0,0,1,7.46-7.94,7.72,7.72,0,0,1,7.46,7.94A7.72,7.72,0,0,1,46.19,22Zm0-13.29a5.13,5.13,0,0,0-4.86,5.35,5.13,5.13,0,0,0,4.86,5.35,5.13,5.13,0,0,0,4.86-5.35A5.13,5.13,0,0,0,46.19,8.71Z"/><rect class="cls-1" x="70.67" y="6.44" width="2.59" height="15.24"/><rect class="cls-1" x="76.34" y="6.44" width="6.16" height="2.59"/><path class="cls-1" d="M82.5,21.68H81.2A5.19,5.19,0,0,1,76,16.49V2.55h2.59V16.49a2.6,2.6,0,0,0,2.59,2.59h1.3v2.59Z"/><polygon class="cls-1" points="66.44 5.88 60.9 17.97 56.36 5.88 53.34 5.88 59.39 22 62.41 22 69.46 5.88 66.44 5.88"/><circle class="cls-1" cx="72.21" cy="3.46" r="1.46"/></svg>